<svg width="62" height="93" viewBox="0 0 62 93" xmlns="http://www.w3.org/2000/svg"><title>Group 18</title><g fill="none" fill-rule="evenodd"><circle fill="#CCC" cx="15.5" cy="15.5" r="15.5"/><path d="M19.122 11.878a.676.676 0 0 1 .205.496.675.675 0 0 1-.205.496.676.676 0 0 1-.496.205.675.675 0 0 1-.496-.205.675.675 0 0 1-.205-.496c0-.193.068-.358.205-.496a.675.675 0 0 1 .496-.205c.193 0 .358.068.496.205M16.88 16.88a1.88 1.88 0 0 0 .572-1.38c0-.539-.19-.999-.572-1.38a1.881 1.881 0 0 0-1.38-.572c-.539 0-.999.19-1.38.572a1.88 1.88 0 0 0-.572 1.38c0 .539.19.999.572 1.38a1.88 1.88 0 0 0 1.38.572c.539 0 .999-.19 1.38-.572m.747-3.507c.585.584.877 1.293.877 2.127 0 .834-.292 1.543-.877 2.127a2.896 2.896 0 0 1-2.127.877 2.896 2.896 0 0 1-2.127-.877 2.896 2.896 0 0 1-.877-2.127c0-.834.292-1.543.877-2.127a2.896 2.896 0 0 1 2.127-.877c.834 0 1.543.292 2.127.877m-1.544-2.68l-.583.004-.583-.004a42.737 42.737 0 0 0-.805 0c-.183.003-.428.01-.736.023-.307.012-.569.038-.785.076a3.054 3.054 0 0 0-.545.141 1.98 1.98 0 0 0-.67.442 1.98 1.98 0 0 0-.443.671 3.06 3.06 0 0 0-.141.545 5.997 5.997 0 0 0-.076.786c-.013.307-.02.552-.023.736-.003.182-.003.45 0 .804l.004.583-.004.583c-.003.354-.003.622 0 .805.002.183.01.428.023.736.012.307.038.569.076.785.038.216.085.398.14.545.103.254.25.478.443.67.193.194.417.341.671.443.147.056.33.103.545.141.216.038.478.064.785.076.308.013.553.02.736.023.183.003.451.003.805 0l.583-.003c.036 0 .23 0 .583.003s.622.003.805 0c.183-.002.428-.01.735-.023.308-.012.57-.038.786-.076.216-.038.397-.085.545-.14.254-.103.478-.25.67-.443.194-.193.341-.417.443-.671.056-.147.103-.33.141-.545.038-.216.064-.478.076-.785.013-.308.02-.553.023-.736.003-.183.003-.451 0-.805l-.004-.583.004-.583c.003-.353.003-.622 0-.804a28.47 28.47 0 0 0-.023-.736 6.064 6.064 0 0 0-.076-.786 3.049 3.049 0 0 0-.141-.545 1.98 1.98 0 0 0-.442-.67 1.98 1.98 0 0 0-.671-.443 3.062 3.062 0 0 0-.545-.141 6.069 6.069 0 0 0-.786-.076c-.307-.013-.552-.02-.735-.023a42.74 42.74 0 0 0-.805 0m5.273 4.807c0 1.164-.013 1.97-.039 2.417-.05 1.057-.365 1.876-.945 2.455-.58.58-1.398.895-2.455.946-.447.025-1.253.038-2.417.038s-1.97-.013-2.417-.038c-1.057-.051-1.876-.366-2.455-.946-.58-.58-.895-1.398-.945-2.455-.026-.447-.039-1.253-.039-2.417s.013-1.97.039-2.417c.05-1.057.366-1.876.945-2.455.58-.58 1.398-.894 2.455-.945.447-.026 1.253-.039 2.417-.039s1.97.013 2.417.039c1.057.05 1.876.365 2.455.945.58.58.894 1.398.945 2.455.026.447.039 1.253.039 2.417" fill="#7D7D7D"/><g transform="translate(0 31)"><ellipse fill="#CCC" cx="15.5" cy="15.5" rx="15.5" ry="15.5"/><path d="M19 9.098v2.122h-1.256c-.466 0-.799.11-.961.306-.163.196-.262.501-.262.892v1.573h2.42l-.318 2.334h-2.102v6.27h-2.48v-6.27H12V13.99h2.042v-1.81c0-1.008.294-1.79.858-2.347.564-.556 1.31-.834 2.25-.834.797 0 1.413.033 1.85.098" fill="#7D7D7D"/></g><g><path d="M15.5 93C24.06 93 31 86.06 31 77.5 31 68.94 24.06 62 15.5 62 6.94 62 0 68.94 0 77.5 0 86.06 6.94 93 15.5 93z" fill="#CCC"/><path d="M21.98 74.577c.112.31-.252 1.025-1.093 2.143-.117.155-.275.362-.474.62-.379.485-.598.804-.656.954-.082.2-.049.379.102.573.083.102.28.32.59.58h.008l.007.025.007.016.015.02c.685.636 1.15 1.175 1.392 1.612a1.1 1.1 0 0 1 .048.092.916.916 0 0 1 .05.194.564.564 0 0 1-.003.248c-.02.073-.08.14-.182.2-.102.062-.246.092-.43.092l-1.866.03a.819.819 0 0 1-.408-.037 1.769 1.769 0 0 1-.38-.16l-.145-.088a3.413 3.413 0 0 1-.51-.466 12.79 12.79 0 0 1-.5-.566 2.428 2.428 0 0 0-.444-.422c-.158-.114-.295-.152-.412-.113a.51.51 0 0 0-.059.025.932.932 0 0 0-.28.32 1.493 1.493 0 0 0-.124.38 2.405 2.405 0 0 0-.047.565c0 .073-.01.14-.026.2a.486.486 0 0 1-.055.135l-.029.028a.513.513 0 0 1-.386.152h-.838c-.345 0-.7-.012-1.065-.112a4.064 4.064 0 0 1-.958-.382 8.737 8.737 0 0 1-.75-.479 4.318 4.318 0 0 1-.515-.418l-.182-.174a4.77 4.77 0 0 1-.2-.218 16.11 16.11 0 0 1-.522-.664c-.262-.345-.52-.712-.772-1.1a22.25 22.25 0 0 1-.893-1.538 23.981 23.981 0 0 1-.951-1.983.579.579 0 0 1-.044-.197c0-.053.007-.092.022-.116l.029-.044c.073-.092.211-.139.415-.139l1.998-.014a.78.78 0 0 1 .284.11l.036.021a.482.482 0 0 1 .175.233c.097.243.21.495.335.755.127.26.227.458.3.594l.116.211c.14.292.277.545.408.758.131.214.25.38.354.5.104.119.205.212.302.28.097.068.18.102.248.102a.542.542 0 0 0 .197-.036.123.123 0 0 0 .036-.037 1.177 1.177 0 0 0 .186-.503c.022-.14.045-.337.07-.59a5.665 5.665 0 0 0 0-.911 3.405 3.405 0 0 0-.066-.532 1.398 1.398 0 0 0-.102-.336l-.044-.087c-.121-.165-.328-.27-.62-.314-.063-.009-.05-.067.037-.174a.986.986 0 0 1 .277-.219c.257-.126.838-.185 1.742-.175.398.005.727.036.984.095a.842.842 0 0 1 .244.098c.066.042.116.1.15.175.034.075.06.153.076.233.017.08.026.191.026.332 0 .141-.003.275-.008.4l-.018.515c-.007.216-.01.417-.01.601 0 .054-.003.156-.008.306a3.135 3.135 0 0 0 .022.645c.014.115.042.21.084.285a.482.482 0 0 0 .164.178l.124.03c.043.01.106-.017.189-.08.083-.064.175-.148.277-.252.102-.105.228-.267.38-.489a15.6 15.6 0 0 0 .495-.783 11.89 11.89 0 0 0 .78-1.64.5.5 0 0 1 .073-.128.324.324 0 0 1 .08-.076l.029-.022.036-.018a.586.586 0 0 1 .24-.025l2.1-.016c.19-.024.345-.018.467.019.121.036.196.076.226.12l.043.073z" fill="#7D7D7D"/></g><g><g transform="translate(31)"><circle fill="#FFF" cx="15.5" cy="15.5" r="15.5"/><path d="M19.122 11.878a.676.676 0 0 1 .205.496.675.675 0 0 1-.205.496.676.676 0 0 1-.496.205.675.675 0 0 1-.496-.205.675.675 0 0 1-.205-.496c0-.193.068-.358.205-.496a.675.675 0 0 1 .496-.205c.193 0 .358.068.496.205M16.88 16.88a1.88 1.88 0 0 0 .572-1.38c0-.539-.19-.999-.572-1.38a1.881 1.881 0 0 0-1.38-.572c-.539 0-.999.19-1.38.572a1.88 1.88 0 0 0-.572 1.38c0 .539.19.999.572 1.38a1.88 1.88 0 0 0 1.38.572c.539 0 .999-.19 1.38-.572m.747-3.507c.585.584.877 1.293.877 2.127 0 .834-.292 1.543-.877 2.127a2.896 2.896 0 0 1-2.127.877 2.896 2.896 0 0 1-2.127-.877 2.896 2.896 0 0 1-.877-2.127c0-.834.292-1.543.877-2.127a2.896 2.896 0 0 1 2.127-.877c.834 0 1.543.292 2.127.877m-1.544-2.68l-.583.004-.583-.004a42.737 42.737 0 0 0-.805 0c-.183.003-.428.01-.736.023-.307.012-.569.038-.785.076a3.054 3.054 0 0 0-.545.141 1.98 1.98 0 0 0-.67.442 1.98 1.98 0 0 0-.443.671 3.06 3.06 0 0 0-.141.545 5.997 5.997 0 0 0-.076.786c-.013.307-.02.552-.023.736-.003.182-.003.45 0 .804l.004.583-.004.583c-.003.354-.003.622 0 .805.002.183.01.428.023.736.012.307.038.569.076.785.038.216.085.398.14.545.103.254.25.478.443.67.193.194.417.341.671.443.147.056.33.103.545.141.216.038.478.064.785.076.308.013.553.02.736.023.183.003.451.003.805 0l.583-.003c.036 0 .23 0 .583.003s.622.003.805 0c.183-.002.428-.01.735-.023.308-.012.57-.038.786-.076.216-.038.397-.085.545-.14.254-.103.478-.25.67-.443.194-.193.341-.417.443-.671.056-.147.103-.33.141-.545.038-.216.064-.478.076-.785.013-.308.02-.553.023-.736.003-.183.003-.451 0-.805l-.004-.583.004-.583c.003-.353.003-.622 0-.804a28.47 28.47 0 0 0-.023-.736 6.064 6.064 0 0 0-.076-.786 3.049 3.049 0 0 0-.141-.545 1.98 1.98 0 0 0-.442-.67 1.98 1.98 0 0 0-.671-.443 3.062 3.062 0 0 0-.545-.141 6.069 6.069 0 0 0-.786-.076c-.307-.013-.552-.02-.735-.023a42.74 42.74 0 0 0-.805 0m5.273 4.807c0 1.164-.013 1.97-.039 2.417-.05 1.057-.365 1.876-.945 2.455-.58.58-1.398.895-2.455.946-.447.025-1.253.038-2.417.038s-1.97-.013-2.417-.038c-1.057-.051-1.876-.366-2.455-.946-.58-.58-.895-1.398-.945-2.455-.026-.447-.039-1.253-.039-2.417s.013-1.97.039-2.417c.05-1.057.366-1.876.945-2.455.58-.58 1.398-.894 2.455-.945.447-.026 1.253-.039 2.417-.039s1.97.013 2.417.039c1.057.05 1.876.365 2.455.945.58.58.894 1.398.945 2.455.026.447.039 1.253.039 2.417" fill="#FF9A00"/></g><g transform="translate(31 31)"><ellipse fill="#FFF" cx="15.5" cy="15.5" rx="15.5" ry="15.5"/><path d="M19 9.098v2.122h-1.256c-.466 0-.799.11-.961.306-.163.196-.262.501-.262.892v1.573h2.42l-.318 2.334h-2.102v6.27h-2.48v-6.27H12V13.99h2.042v-1.81c0-1.008.294-1.79.858-2.347.564-.556 1.31-.834 2.25-.834.797 0 1.413.033 1.85.098" fill="#FF9A00"/></g><path d="M46.5 93C55.06 93 62 86.06 62 77.5 62 68.94 55.06 62 46.5 62 37.94 62 31 68.94 31 77.5 31 86.06 37.94 93 46.5 93z" fill="#FFF"/><path d="M52.98 74.577c.112.31-.252 1.025-1.093 2.143-.117.155-.275.362-.474.62-.379.485-.598.804-.656.954-.082.2-.049.379.102.573.083.102.28.32.59.58h.008l.007.025.007.016.015.02c.685.636 1.15 1.175 1.392 1.612a1.1 1.1 0 0 1 .048.092.916.916 0 0 1 .05.194.564.564 0 0 1-.003.248c-.02.073-.08.14-.182.2-.102.062-.246.092-.43.092l-1.866.03a.819.819 0 0 1-.408-.037 1.769 1.769 0 0 1-.38-.16l-.145-.088a3.413 3.413 0 0 1-.51-.466 12.79 12.79 0 0 1-.5-.566 2.428 2.428 0 0 0-.444-.422c-.158-.114-.295-.152-.412-.113a.51.51 0 0 0-.059.025.932.932 0 0 0-.28.32 1.493 1.493 0 0 0-.124.38 2.405 2.405 0 0 0-.047.565c0 .073-.01.14-.026.2a.486.486 0 0 1-.055.135l-.029.028a.513.513 0 0 1-.386.152h-.838c-.345 0-.7-.012-1.065-.112a4.064 4.064 0 0 1-.958-.382 8.737 8.737 0 0 1-.75-.479 4.318 4.318 0 0 1-.515-.418l-.182-.174a4.77 4.77 0 0 1-.2-.218 16.11 16.11 0 0 1-.522-.664c-.262-.345-.52-.712-.772-1.1a22.25 22.25 0 0 1-.893-1.538 23.981 23.981 0 0 1-.951-1.983.579.579 0 0 1-.044-.197c0-.053.007-.092.022-.116l.029-.044c.073-.092.211-.139.415-.139l1.998-.014a.78.78 0 0 1 .284.11l.036.021a.482.482 0 0 1 .175.233c.097.243.21.495.335.755.127.26.227.458.3.594l.116.211c.14.292.277.545.408.758.131.214.25.38.354.5.104.119.205.212.302.28.097.068.18.102.248.102a.542.542 0 0 0 .197-.036.123.123 0 0 0 .036-.037 1.177 1.177 0 0 0 .186-.503c.022-.14.045-.337.07-.59a5.665 5.665 0 0 0 0-.911 3.405 3.405 0 0 0-.066-.532 1.398 1.398 0 0 0-.102-.336l-.044-.087c-.121-.165-.328-.27-.62-.314-.063-.009-.05-.067.037-.174a.986.986 0 0 1 .277-.219c.257-.126.838-.185 1.742-.175.398.005.727.036.984.095a.842.842 0 0 1 .244.098c.066.042.116.1.15.175.034.075.06.153.076.233.017.08.026.191.026.332 0 .141-.003.275-.008.4l-.018.515c-.007.216-.01.417-.01.601 0 .054-.003.156-.008.306a3.135 3.135 0 0 0 .022.645c.014.115.042.21.084.285a.482.482 0 0 0 .164.178l.124.03c.043.01.106-.017.189-.08.083-.064.175-.148.277-.252.102-.105.228-.267.38-.489a15.6 15.6 0 0 0 .495-.783 11.89 11.89 0 0 0 .78-1.64.5.5 0 0 1 .073-.128.324.324 0 0 1 .08-.076l.029-.022.036-.018a.586.586 0 0 1 .24-.025l2.1-.016c.19-.024.345-.018.467.019.121.036.196.076.226.12l.043.073z" fill="#FF9A00"/></g></g></svg>